<svg width="3495" height="441" viewBox="0 0 3495 441" fill="none" xmlns="http://www.w3.org/2000/svg">
<path d="M1279.75 438.805C1295.65 420.643 1306.79 387.657 1306.79 387.657L1293.36 369.646L1292 372.528C1291.65 373.249 1291.31 373.969 1290.97 374.689L1290.36 375.941L1300.1 389.894C1300.1 389.894 1287.92 419.923 1272.63 435.62C1271.57 436.72 1270.43 437.819 1269.25 439.108L1268.56 439.829L1278.8 439.753L1279.75 438.805Z" fill="#252525"></path>
<path d="M1365.11 392.506C1365.11 392.506 1361.95 416.014 1353.62 439.067H1353.55V439.143L1361.76 439.067L1371.73 395.615L1379.79 380.6L1374.62 375.33L1365.11 392.506Z" fill="#252525"></path>
<path d="M1340.12 161.672L1371.2 162.62L1369.67 168.99L1340.12 161.672Z" fill="#252525"></path>
<path d="M1422.7 113.027L1408.7 111.587C1406.04 113.52 1403.37 115.378 1400.75 117.16L1424.3 119.17C1424.3 119.17 1464.39 91.1119 1479.34 65.4808C1493.19 41.7454 1500.83 18.8821 1505.06 0H1498.13C1493.87 18.6925 1486.42 40.4563 1473.37 61.765C1455.53 90.8845 1422.74 113.065 1422.74 113.065" fill="#252525"></path>
<path d="M1410.04 183.437L1378.51 182.451L1400.34 194.319L1410.04 183.437Z" fill="#252525"></path>
<path d="M1374.28 213.469L1394.36 223.63L1410.68 221.886L1395.58 214.682L1374.28 213.469Z" fill="#252525"></path>
<path d="M1353.16 270.833L1363.85 276.937L1364.15 267.458L1347.15 253.809L1353.16 270.833Z" fill="#252525"></path>
<path d="M1378.47 248.314L1385.92 248.504L1381.78 242.248L1363.4 237.205L1378.47 248.314Z" fill="#252525"></path>
<path d="M1325.14 276.673L1320.42 265.867L1317.98 278.114L1322.74 287.214L1325.14 276.673Z" fill="#252525"></path>
<path d="M1171.55 190.224L1174.56 190.603C1174.75 190.603 1174.94 190.641 1175.13 190.641C1177.64 190.717 1180.34 189.238 1180.8 186.053C1180.99 184.84 1181.41 181.958 1172.54 176.385L1168.93 182.072C1169.88 182.679 1170.87 183.361 1171.74 184.006L1171.55 190.224Z" fill="#252525"></path>
<path d="M1169.28 195.154C1165.02 189.012 1163.61 179.457 1163.61 179.457C1163.61 179.457 1125.99 186.244 1119.56 187.912C1113.13 189.581 1106.25 213.126 1106.25 213.126C1106.25 213.126 1114.81 211.458 1130.33 209.449C1148.93 207.06 1181.79 202.851 1181.79 202.851C1181.79 202.851 1172.28 199.552 1169.28 195.192" fill="#252525"></path>
<path d="M1464.67 227.763L1414.79 206.531L1442.15 170.7L1391.21 163.989L1396.84 144.955L1336.24 143.059L1346.97 126.869L1338.03 127.4C1336.77 127.476 1211.89 134.718 1197.32 135.779C1182.64 136.803 1167.5 159.515 1162.82 167.212C1151.94 168.918 1118.58 174.454 1110.36 178.738C1100.55 183.857 1093.13 212.749 1091.11 221.469L1089.63 227.877L1115.31 224.086L1116.45 223.934L1178.22 213.355L1179.1 213.204L1184.31 204.521L1101.54 217.071C1105.87 201.071 1111.31 188.407 1114.58 186.663C1120.48 183.591 1149.47 178.321 1166.32 175.743L1168.45 175.402L1169.51 173.544C1175.79 162.7 1189.07 145.296 1197.97 144.69C1210.33 143.818 1305.2 138.282 1329.62 136.879L1319.92 151.514L1385.01 153.562L1379.72 171.496L1425.71 177.525L1400.76 210.208L1432.18 223.593L1380.75 231.365L1400.99 257.186L1371.73 255.632L1370.59 291.993L1331.75 265.907L1323.5 300.941L1314.33 278.874L1312.96 278.116C1312.09 277.623 1226.5 229.887 1216.76 225.451C1216.42 225.299 1216 225.147 1215.62 224.958C1207.51 221.735 1189.6 218.777 1162.21 216.085L1127.78 222.19C1130.52 222.341 1193.71 225.83 1212.04 233.147C1212.42 233.299 1212.76 233.451 1213.07 233.602C1221.7 237.508 1297.02 279.481 1307.22 285.168L1325.9 329.985L1337.54 280.58L1379.08 308.486L1380.44 265.073L1420.2 267.196L1397.26 237.963L1464.7 227.801L1464.67 227.763Z" fill="#252525"></path>
<path d="M1197.27 163.492C1197.31 164.477 1197.42 165.653 1197.65 166.942C1197.69 167.207 1197.77 167.435 1197.8 167.7C1197.88 167.966 1197.92 168.231 1197.99 168.458C1197.99 168.458 1197.99 168.496 1197.99 168.534C1198.07 168.762 1198.11 168.989 1198.18 169.179C1198.18 169.255 1198.22 169.331 1198.26 169.368C1198.34 169.558 1198.38 169.748 1198.45 169.937C1198.45 170.013 1198.49 170.051 1198.53 170.127C1198.6 170.354 1198.72 170.62 1198.83 170.847C1198.83 170.885 1198.87 170.961 1198.91 170.999C1198.98 171.188 1199.1 171.378 1199.17 171.568C1199.21 171.643 1199.25 171.719 1199.29 171.795C1199.36 171.947 1199.48 172.136 1199.55 172.288C1199.59 172.364 1199.63 172.44 1199.67 172.515C1199.82 172.743 1199.93 172.97 1200.09 173.198C1200.09 173.198 1200.12 173.274 1200.16 173.274C1200.32 173.463 1200.43 173.691 1200.58 173.88C1200.62 173.956 1200.7 174.032 1200.73 174.108C1200.85 174.26 1201 174.449 1201.11 174.601C1201.15 174.677 1201.23 174.715 1201.27 174.79C1201.46 175.018 1201.65 175.208 1201.87 175.435C1203.51 177.065 1205.49 178.165 1207.81 178.847C1209.22 179.227 1210.7 179.454 1212.34 179.53C1213.71 179.53 1215.15 179.53 1216.67 179.302C1216.71 179.302 1216.79 179.302 1216.82 179.302C1217.17 179.265 1217.51 179.189 1217.81 179.151C1217.97 179.151 1218.08 179.075 1218.19 179.075C1218.42 179.037 1218.69 178.961 1218.92 178.923C1219.07 178.923 1219.18 178.847 1219.34 178.81C1219.56 178.734 1219.79 178.696 1219.98 178.62C1220.13 178.582 1220.25 178.544 1220.36 178.506C1220.59 178.43 1220.78 178.355 1221.01 178.279C1221.12 178.241 1221.28 178.165 1221.39 178.127C1221.58 178.051 1221.81 177.975 1222 177.9C1222.11 177.862 1222.23 177.786 1222.34 177.748C1222.53 177.672 1222.72 177.558 1222.95 177.482C1223.06 177.445 1223.18 177.369 1223.29 177.293C1223.48 177.179 1223.67 177.103 1223.86 176.99C1223.98 176.914 1224.09 176.876 1224.17 176.8C1224.36 176.686 1224.55 176.573 1224.7 176.459C1224.81 176.383 1224.89 176.345 1225 176.269C1225.19 176.155 1225.35 176.042 1225.54 175.928C1225.65 175.852 1225.73 175.776 1225.84 175.7C1225.99 175.587 1226.18 175.473 1226.33 175.321C1226.45 175.245 1226.52 175.17 1226.6 175.094C1226.75 174.98 1226.91 174.828 1227.06 174.715C1227.13 174.639 1227.25 174.563 1227.32 174.487C1227.48 174.373 1227.63 174.222 1227.78 174.108C1227.86 174.032 1227.97 173.918 1228.05 173.843C1228.2 173.729 1228.31 173.577 1228.46 173.463C1228.54 173.388 1228.65 173.274 1228.73 173.198C1228.85 173.084 1229 172.933 1229.11 172.819C1229.19 172.705 1229.3 172.629 1229.38 172.515C1229.49 172.402 1229.61 172.25 1229.72 172.136C1229.83 172.023 1229.91 171.909 1229.99 171.795C1230.1 171.681 1230.18 171.568 1230.25 171.454C1230.37 171.34 1230.44 171.188 1230.56 171.075C1230.63 170.961 1230.71 170.847 1230.79 170.733C1230.9 170.582 1230.98 170.468 1231.09 170.316C1231.17 170.203 1231.2 170.127 1231.28 170.013C1231.39 169.861 1231.51 169.71 1231.58 169.52C1231.62 169.444 1231.7 169.368 1231.74 169.293C1231.85 169.103 1231.96 168.913 1232.08 168.762C1232.08 168.724 1232.15 168.648 1232.15 168.61C1232.27 168.421 1232.38 168.193 1232.5 168.004C1232.5 168.004 1232.5 167.966 1232.54 167.928C1233.98 165.236 1234.86 162.544 1235.24 160.458C1242.01 160.003 1248.82 159.586 1254.71 159.283C1256.01 159.207 1257.22 159.131 1258.4 159.093C1258.44 159.093 1258.48 159.093 1258.52 159.093C1259.09 159.093 1259.62 159.055 1260.19 159.017C1260.27 159.017 1260.3 159.017 1260.38 159.017C1260.91 159.017 1261.45 158.98 1261.98 158.942C1262.47 158.942 1262.97 158.904 1263.42 158.866C1263.5 158.866 1263.58 158.866 1263.65 158.866C1264.11 158.866 1264.53 158.866 1264.95 158.828C1265.02 158.828 1265.1 158.828 1265.17 158.828C1265.59 158.828 1266.05 158.828 1266.43 158.79L1266.31 156.818L1266.16 153.975C1263.61 154.05 1203.66 155.795 1196.4 156.894C1188.41 158.107 1186.47 164.022 1186.58 167.018L1193.32 166.79C1193.32 166.79 1193.32 164.364 1196.97 163.605M1215.61 172.781C1213.67 173.046 1211.96 173.046 1210.51 172.781C1208.84 172.478 1207.47 171.833 1206.44 170.847C1204.54 169.027 1203.93 166.259 1203.78 164.212L1206.74 164.06C1206.74 164.174 1206.78 164.288 1206.82 164.439C1206.82 164.477 1206.82 164.553 1206.86 164.591C1206.9 164.743 1206.93 164.894 1207.01 165.084C1207.01 165.198 1207.09 165.311 1207.12 165.425C1207.12 165.501 1207.2 165.577 1207.2 165.653C1207.24 165.804 1207.31 165.918 1207.39 166.07C1207.39 166.146 1207.47 166.184 1207.47 166.259C1207.58 166.449 1207.66 166.639 1207.81 166.828C1207.81 166.866 1207.85 166.904 1207.89 166.942C1208 167.094 1208.11 167.283 1208.23 167.435C1208.23 167.473 1208.3 167.549 1208.34 167.586C1208.65 167.966 1209.03 168.345 1209.44 168.648C1209.48 168.648 1209.56 168.724 1209.6 168.762C1209.79 168.876 1209.98 169.027 1210.21 169.141C1210.24 169.141 1210.28 169.179 1210.36 169.217C1210.62 169.331 1210.89 169.482 1211.16 169.558C1211.19 169.558 1211.27 169.558 1211.35 169.596C1211.58 169.672 1211.84 169.748 1212.11 169.786C1212.18 169.786 1212.3 169.786 1212.37 169.823C1212.72 169.899 1213.06 169.937 1213.44 169.937C1213.71 169.937 1213.97 169.937 1214.24 169.937C1214.31 169.937 1214.39 169.937 1214.47 169.937C1214.69 169.937 1214.96 169.899 1215.19 169.861C1215.19 169.861 1215.23 169.861 1215.26 169.861C1215.53 169.823 1215.76 169.748 1216.03 169.672C1216.1 169.672 1216.18 169.634 1216.25 169.596C1216.48 169.52 1216.67 169.444 1216.9 169.368C1216.9 169.368 1216.98 169.368 1217.01 169.331C1217.24 169.255 1217.47 169.141 1217.7 169.027C1217.78 169.027 1217.85 168.951 1217.89 168.913C1218.08 168.8 1218.27 168.724 1218.42 168.61C1218.46 168.61 1218.5 168.572 1218.57 168.534C1218.8 168.421 1218.99 168.269 1219.18 168.117C1219.26 168.079 1219.3 168.041 1219.37 168.004C1219.53 167.89 1219.72 167.776 1219.87 167.624C1219.91 167.624 1219.94 167.549 1220.02 167.511C1220.21 167.359 1220.4 167.207 1220.59 167.056C1220.63 167.018 1220.67 166.98 1220.74 166.942C1220.89 166.79 1221.05 166.676 1221.2 166.525C1221.2 166.525 1221.28 166.449 1221.31 166.449C1221.5 166.259 1221.66 166.108 1221.85 165.918C1221.85 165.918 1221.88 165.88 1221.92 165.842C1222.07 165.691 1222.23 165.501 1222.38 165.349C1222.38 165.349 1222.38 165.349 1222.42 165.311C1223.1 164.553 1223.63 163.833 1224.05 163.226L1227.44 163.074C1227.44 163.074 1227.44 163.15 1227.4 163.15C1225.8 166.904 1222.49 171.909 1215.68 172.819" fill="#252525"></path>
<path d="M1243.31 165.312C1243.31 165.312 1243.12 168.042 1241.52 171.076C1240.99 172.099 1240.34 173.123 1239.47 174.109C1236.54 177.408 1229.77 179.455 1229.77 179.455C1229.77 179.455 1232.09 180.327 1234.98 180.706C1235.29 180.744 1235.63 180.782 1235.93 180.82C1236.16 180.82 1236.39 180.82 1236.62 180.858C1237.61 180.896 1238.63 180.858 1239.66 180.744C1240.08 180.668 1240.46 180.593 1240.84 180.517C1241.14 180.441 1241.49 180.327 1241.75 180.213C1241.9 180.138 1242.06 180.1 1242.21 180.024C1242.59 179.872 1242.93 179.645 1243.27 179.417C1243.69 179.152 1244.11 178.811 1244.45 178.431C1245.21 177.597 1245.71 176.725 1246.01 175.815C1246.24 175.095 1246.35 174.336 1246.35 173.616C1246.39 169.37 1243.27 165.312 1243.27 165.312" fill="#252525"></path>
<path d="M95.8228 88.1551C141.357 88.1551 176.658 99.492 201.688 122.09C226.718 144.764 239.272 176.651 239.272 217.865C239.272 240.805 235.163 261.203 227.023 279.024C218.844 296.882 206.747 311.821 190.695 323.954C179.321 332.523 166.463 338.666 152.16 342.381C137.857 346.135 119.065 347.955 95.8228 347.955H0V332.068L21.9871 330.172L28.6441 324.712V111.398L21.9871 105.9L0 103.625V88.1172H95.8228V88.1551ZM63.5648 330.21H94.3012C129.716 330.21 156.192 320.921 173.691 302.304C191.189 283.725 199.976 255.592 199.976 217.865C199.976 180.139 191.265 152.081 173.919 133.616C156.535 115.151 129.983 105.9 94.3012 105.9H63.5648V330.21Z" fill="white"></path>
<path d="M95.8228 88.1551C141.357 88.1551 176.658 99.492 201.688 122.09C226.718 144.764 239.272 176.651 239.272 217.865C239.272 240.805 235.163 261.203 227.023 279.024C218.844 296.882 206.747 311.821 190.695 323.954C179.321 332.523 166.463 338.666 152.16 342.381C137.857 346.135 119.065 347.955 95.8228 347.955H0V332.068L21.9871 330.172L28.6441 324.712V111.398L21.9871 105.9L0 103.625V88.1172H95.8228V88.1551ZM63.5648 330.21H94.3012C129.716 330.21 156.192 320.921 173.691 302.304C191.189 283.725 199.976 255.592 199.976 217.865C199.976 180.139 191.265 152.081 173.919 133.616C156.535 115.151 129.983 105.9 94.3012 105.9H63.5648V330.21Z" fill="#252525"></path>
<path d="M359.036 84.9277H384.637L477.797 327.362L501.115 332.102V347.988H412.9V332.102L436.98 330.206L439.833 324.746L411.759 250.772H320.121L292.428 324.746L296.422 330.206L321.643 332.102V347.988H245.562V332.102L267.968 327.362L359.036 84.9277ZM365.122 125.574L326.778 232.989H405.14L365.122 125.574Z" fill="white"></path>
<path d="M359.036 84.9277H384.637L477.797 327.362L501.115 332.102V347.988H412.9V332.102L436.98 330.206L439.833 324.746L411.759 250.772H320.121L292.428 324.746L296.422 330.206L321.643 332.102V347.988H245.562V332.102L267.968 327.362L359.036 84.9277ZM365.122 125.574L326.778 232.989H405.14L365.122 125.574Z" fill="#252525"></path>
<path d="M526.965 347.994V332.107L551.843 330.211L558.462 324.714V111.399L551.843 105.901L526.965 103.664V88.1562H625.641V103.664L600.762 105.901L594.143 111.399V324.714L600.762 330.211L625.641 332.107V347.994H526.965Z" fill="white"></path>
<path d="M526.965 347.994V332.107L551.843 330.211L558.462 324.714V111.399L551.843 105.901L526.965 103.664V88.1562H625.641V103.664L600.762 105.901L594.143 111.399V324.714L600.762 330.211L625.641 332.107V347.994H526.965Z" fill="#252525"></path>
<path d="M673.043 347.994V332.107L697.503 330.211L704.16 324.714V111.399L697.503 105.901L673.043 103.664V88.1562H767.915V103.664L745.699 105.901L739.08 111.399V330.211H826.915L832.431 323.955L839.05 277.432H859.173V347.994H673.043Z" fill="white"></path>
<path d="M673.043 347.994V332.107L697.503 330.211L704.16 324.714V111.399L697.503 105.901L673.043 103.664V88.1562H767.915V103.664L745.699 105.901L739.08 111.399V330.211H826.915L832.431 323.955L839.05 277.432H859.173V347.994H673.043Z" fill="#252525"></path>
<path d="M837.07 88.1562H927.377V103.664L905.162 105.939L901.206 110.261L960.776 216.767L1026.05 113.295L1022.44 107.797L998.702 103.664V88.1562H1078.02V103.664L1054.32 108.555L973.482 237.545V324.714L979.72 330.211L1006.12 332.107V347.956H905.542V332.107L931.942 330.211L938.181 324.714V242.664L860.769 107.418L837.07 103.664V88.1562Z" fill="white"></path>
<path d="M837.07 88.1562H927.377V103.664L905.162 105.939L901.206 110.261L960.776 216.767L1026.05 113.295L1022.44 107.797L998.702 103.664V88.1562H1078.02V103.664L1054.32 108.555L973.482 237.545V324.714L979.72 330.211L1006.12 332.107V347.956H905.542V332.107L931.942 330.211L938.181 324.714V242.664L860.769 107.418L837.07 103.664V88.1562Z" fill="#252525"></path>
<path d="M1858.75 117.01C1854.3 128.688 1849.85 140.366 1845.36 152.044C1829.57 193.448 1813.75 234.852 1797.96 276.294C1790.01 297.11 1777.92 327.367 1770.08 348.221C1769.32 349.017 1760.26 348.486 1753.34 348.486C1753.34 348.486 1751.29 343.102 1750.45 340.827C1742.96 320.959 1737.33 300.598 1729.91 280.73C1711.38 231.136 1692.86 181.542 1674.37 131.986C1673 128.346 1671.71 124.631 1670.41 120.953C1669.88 120.953 1669.35 120.991 1668.78 121.029C1668.55 122.659 1668.13 124.289 1668.13 125.882C1668.13 189.694 1668.66 253.355 1668.7 317.13C1668.7 324.485 1673.65 327.708 1684.07 328.656C1688.26 329.035 1693.77 329.452 1698.18 329.263C1698.07 334.381 1698.49 350.117 1698.11 350.117H1684.18C1664.63 350.117 1632.75 350.117 1613.16 350.117C1613.16 350.117 1613.24 346.894 1613.28 338.514C1613.28 336.239 1613.28 331.955 1613.39 329.377C1619.97 329.49 1628.65 328.391 1634.62 327.329C1642.04 326.002 1646.87 323.196 1646.87 315.461C1646.87 251.232 1646.87 187.002 1646.87 122.811C1646.87 111.55 1646.41 110.829 1635.61 108.706C1631.92 107.986 1628.04 108.023 1624.23 107.91C1618.76 107.796 1615.9 106.052 1616.02 99.682C1616.13 93.8808 1617.23 91.568 1623.7 91.6817C1645.8 92.0988 1667.94 91.8334 1690.04 91.8334H1695.37C1708.15 132.517 1724.39 170.964 1738.77 210.093C1747.37 233.563 1756.23 256.957 1764.98 280.351C1766.08 283.233 1767.19 285.811 1768.86 289.186C1782.82 257.071 1795.87 224.387 1807.97 191.742C1820.1 158.945 1835.2 127.209 1844.07 92.1367C1844.79 92.0988 1846.84 91.8334 1848.9 91.8334C1871.46 91.8334 1893.98 91.8713 1916.53 91.7576C1920.95 91.7576 1923.91 92.2125 1923.46 97.7862C1923.04 102.564 1924.48 107.948 1916.72 107.948C1912.31 107.948 1907.9 108.971 1903.49 109.085C1897.32 109.199 1895.53 112.915 1895.23 118.109C1895.15 119.588 1895.23 121.067 1895.23 122.545V316.485C1895.23 327.632 1896.94 329.263 1907.86 329.718C1912.69 329.907 1917.48 330.817 1922.16 331.348C1922.51 331.841 1922.92 332.144 1923 332.524C1924.24 342.154 1920.06 346.97 1910.45 346.97C1886.82 346.97 1863.24 346.818 1839.65 347.083C1834.02 347.159 1832.62 344.96 1833.15 339.993C1833.61 335.784 1831.25 330.211 1839.39 330.704C1844.41 331.045 1849.66 330.628 1854.45 329.301C1857.08 328.542 1859.24 325.395 1861.07 322.893C1861.87 321.755 1861.3 319.594 1861.3 317.888C1861.3 253.241 1861.3 188.595 1861.3 123.948V117.275C1860.46 117.161 1859.66 117.01 1858.83 116.896" fill="#F9F5EA"></path>
<path d="M1858.75 117.01C1854.3 128.688 1849.85 140.366 1845.36 152.044C1829.57 193.448 1813.75 234.852 1797.96 276.294C1790.01 297.11 1777.92 327.367 1770.08 348.221C1769.32 349.017 1760.26 348.486 1753.34 348.486C1753.34 348.486 1751.29 343.102 1750.45 340.827C1742.96 320.959 1737.33 300.598 1729.91 280.73C1711.38 231.136 1692.86 181.542 1674.37 131.986C1673 128.346 1671.71 124.631 1670.41 120.953C1669.88 120.953 1669.35 120.991 1668.78 121.029C1668.55 122.659 1668.13 124.289 1668.13 125.882C1668.13 189.694 1668.66 253.355 1668.7 317.13C1668.7 324.485 1673.65 327.708 1684.07 328.656C1688.26 329.035 1693.77 329.452 1698.18 329.263C1698.07 334.381 1698.49 350.117 1698.11 350.117H1684.18C1664.63 350.117 1632.75 350.117 1613.16 350.117C1613.16 350.117 1613.24 346.894 1613.28 338.514C1613.28 336.239 1613.28 331.955 1613.39 329.377C1619.97 329.49 1628.65 328.391 1634.62 327.329C1642.04 326.002 1646.87 323.196 1646.87 315.461C1646.87 251.232 1646.87 187.002 1646.87 122.811C1646.87 111.55 1646.41 110.829 1635.61 108.706C1631.92 107.986 1628.04 108.023 1624.23 107.91C1618.76 107.796 1615.9 106.052 1616.02 99.682C1616.13 93.8808 1617.23 91.568 1623.7 91.6817C1645.8 92.0988 1667.94 91.8334 1690.04 91.8334H1695.37C1708.15 132.517 1724.39 170.964 1738.77 210.093C1747.37 233.563 1756.23 256.957 1764.98 280.351C1766.08 283.233 1767.19 285.811 1768.86 289.186C1782.82 257.071 1795.87 224.387 1807.97 191.742C1820.1 158.945 1835.2 127.209 1844.07 92.1367C1844.79 92.0988 1846.84 91.8334 1848.9 91.8334C1871.46 91.8334 1893.98 91.8713 1916.53 91.7576C1920.95 91.7576 1923.91 92.2125 1923.46 97.7862C1923.04 102.564 1924.48 107.948 1916.72 107.948C1912.31 107.948 1907.9 108.971 1903.49 109.085C1897.32 109.199 1895.53 112.915 1895.23 118.109C1895.15 119.588 1895.23 121.067 1895.23 122.545V316.485C1895.23 327.632 1896.94 329.263 1907.86 329.718C1912.69 329.907 1917.48 330.817 1922.16 331.348C1922.51 331.841 1922.92 332.144 1923 332.524C1924.24 342.154 1920.06 346.97 1910.45 346.97C1886.82 346.97 1863.24 346.818 1839.65 347.083C1834.02 347.159 1832.62 344.96 1833.15 339.993C1833.61 335.784 1831.25 330.211 1839.39 330.704C1844.41 331.045 1849.66 330.628 1854.45 329.301C1857.08 328.542 1859.24 325.395 1861.07 322.893C1861.87 321.755 1861.3 319.594 1861.3 317.888C1861.3 253.241 1861.3 188.595 1861.3 123.948V117.275C1860.46 117.161 1859.66 117.01 1858.83 116.896" fill="#252525"></path>
<path d="M2751.68 331.349C2753.33 341.763 2749.25 346.971 2739.43 346.971C2716.04 346.971 2692.68 346.933 2669.29 346.971C2665.1 346.971 2661.3 346.971 2662.29 341.169C2663.01 336.923 2659.36 331.046 2668.53 330.477C2674.73 330.098 2682.52 332.297 2687.36 325.738C2688.72 323.88 2690.17 321.453 2690.17 319.33C2690.32 252.598 2690.25 185.866 2690.36 119.096C2690.36 112.878 2686.18 110.641 2681.57 109.314C2677.62 108.138 2673.24 107.873 2669.06 107.949C2661.37 108.062 2662.52 102.868 2662.14 97.9768C2661.72 92.5927 2664.23 91.7586 2668.87 91.7586C2703.75 91.9102 2738.6 91.2277 2773.44 92.0998C2793.56 92.5927 2813.23 96.8772 2829.89 109.579C2840.09 117.352 2845.94 127.892 2848.57 140.139C2852.41 157.884 2852.41 175.287 2842.44 191.364C2834.61 204.103 2822.7 211.8 2809.08 217.146C2805.77 218.436 2802.27 219.384 2798.96 220.711C2797.79 221.166 2796.87 222.341 2795.85 223.175C2796.87 224.009 2797.75 225.223 2798.93 225.678C2814.71 231.517 2825.55 242.247 2831.6 257.868C2834.95 266.475 2838.11 275.158 2841.72 283.651C2847.01 296.012 2852.53 308.221 2858.08 320.467C2861.24 327.444 2866.87 330.363 2874.47 329.681C2875.92 329.567 2877.4 329.908 2879.84 330.136C2879.84 335.672 2880.18 341.132 2879.61 346.478C2879.46 347.994 2876.53 350.611 2875.08 350.459C2862.64 349.208 2849.75 350.497 2838.45 342.876C2830.65 337.605 2825.86 330.212 2822.32 322.212C2814.37 304.164 2807.6 285.585 2799.88 267.423C2794.48 254.721 2788.54 242.019 2773.86 237.394C2759.86 232.995 2745.48 231.175 2730.8 233.488C2728.93 233.792 2727.03 233.905 2724.52 234.209C2724.41 236.294 2724.18 238.342 2724.18 240.389C2724.18 266.437 2724.18 292.523 2724.18 318.572C2724.18 325.7 2727.79 329.226 2734.91 329.681C2740.34 330.022 2745.79 330.743 2751.53 331.311M2724.37 161.486C2724.37 177.145 2724.48 192.842 2724.29 208.502C2724.25 212.786 2725.59 214.682 2730.11 214.53C2741.33 214.113 2752.63 214.53 2763.82 213.62C2793.56 211.156 2809.58 196.293 2811.86 169.865C2814.79 135.703 2800.68 116.897 2767.05 111.664C2755.14 109.807 2742.93 110.148 2730.87 109.238C2725.85 108.859 2724.18 110.679 2724.25 115.721C2724.52 130.964 2724.37 146.206 2724.37 161.486Z" fill="#F9F5EA"></path>
<path d="M2751.68 331.349C2753.33 341.763 2749.25 346.971 2739.43 346.971C2716.04 346.971 2692.68 346.933 2669.29 346.971C2665.1 346.971 2661.3 346.971 2662.29 341.169C2663.01 336.923 2659.36 331.046 2668.53 330.477C2674.73 330.098 2682.52 332.297 2687.36 325.738C2688.72 323.88 2690.17 321.453 2690.17 319.33C2690.32 252.598 2690.25 185.866 2690.36 119.096C2690.36 112.878 2686.18 110.641 2681.57 109.314C2677.62 108.138 2673.24 107.873 2669.06 107.949C2661.37 108.062 2662.52 102.868 2662.14 97.9768C2661.72 92.5927 2664.23 91.7586 2668.87 91.7586C2703.75 91.9102 2738.6 91.2277 2773.44 92.0998C2793.56 92.5927 2813.23 96.8772 2829.89 109.579C2840.09 117.352 2845.94 127.892 2848.57 140.139C2852.41 157.884 2852.41 175.287 2842.44 191.364C2834.61 204.103 2822.7 211.8 2809.08 217.146C2805.77 218.436 2802.27 219.384 2798.96 220.711C2797.79 221.166 2796.87 222.341 2795.85 223.175C2796.87 224.009 2797.75 225.223 2798.93 225.678C2814.71 231.517 2825.55 242.247 2831.6 257.868C2834.95 266.475 2838.11 275.158 2841.72 283.651C2847.01 296.012 2852.53 308.221 2858.08 320.467C2861.24 327.444 2866.87 330.363 2874.47 329.681C2875.92 329.567 2877.4 329.908 2879.84 330.136C2879.84 335.672 2880.18 341.132 2879.61 346.478C2879.46 347.994 2876.53 350.611 2875.08 350.459C2862.64 349.208 2849.75 350.497 2838.45 342.876C2830.65 337.605 2825.86 330.212 2822.32 322.212C2814.37 304.164 2807.6 285.585 2799.88 267.423C2794.48 254.721 2788.54 242.019 2773.86 237.394C2759.86 232.995 2745.48 231.175 2730.8 233.488C2728.93 233.792 2727.03 233.905 2724.52 234.209C2724.41 236.294 2724.18 238.342 2724.18 240.389C2724.18 266.437 2724.18 292.523 2724.18 318.572C2724.18 325.7 2727.79 329.226 2734.91 329.681C2740.34 330.022 2745.79 330.743 2751.53 331.311M2724.37 161.486C2724.37 177.145 2724.48 192.842 2724.29 208.502C2724.25 212.786 2725.59 214.682 2730.11 214.53C2741.33 214.113 2752.63 214.53 2763.82 213.62C2793.56 211.156 2809.58 196.293 2811.86 169.865C2814.79 135.703 2800.68 116.897 2767.05 111.664C2755.14 109.807 2742.93 110.148 2730.87 109.238C2725.85 108.859 2724.18 110.679 2724.25 115.721C2724.52 130.964 2724.37 146.206 2724.37 161.486Z" fill="#252525"></path>
<path d="M3366.06 331.267C3366.6 332.177 3366.79 332.329 3366.79 332.518C3367.98 342.149 3363.79 346.964 3354.23 346.964C3330.42 346.964 3306.61 346.964 3282.79 346.964C3274.46 346.964 3274.43 346.964 3274.46 338.699C3274.46 336.424 3274.65 334.149 3274.77 331.533C3280.13 330.888 3285.12 330.016 3290.1 329.75C3298.73 329.295 3302.5 325.58 3302.5 316.859C3302.5 252.857 3302.39 188.855 3302.61 124.853C3302.61 113.44 3302.58 111.165 3288.88 108.246C3287.44 107.942 3285.91 107.942 3284.43 107.98C3273.09 108.397 3274.08 105.781 3274.77 94.8614C3274.84 93.7618 3278.46 92.0177 3280.4 92.0177C3302.73 91.8281 3325.06 91.866 3347.39 91.866C3352.29 91.866 3357.16 92.0556 3362.07 91.866C3366.03 91.6765 3367.09 93.3448 3367.17 97.0984C3367.36 106.994 3366.67 107.715 3356.67 108.056C3352.48 108.17 3348.15 108.435 3344.12 109.535C3339.66 110.748 3336.39 113.364 3336.43 118.976C3336.58 150.143 3336.55 181.272 3336.43 212.439C3336.43 216.571 3337.95 217.33 3341.87 218.05C3352.41 219.984 3355.87 211.642 3360.74 205.879C3377.7 185.708 3394.25 165.233 3410.95 144.872C3418.45 135.735 3425.98 126.635 3433.32 117.421C3436.59 113.326 3435.26 110.217 3429.86 109.269C3426.36 108.663 3422.74 108.132 3419.21 108.056C3414.26 107.98 3411.98 106.16 3412.09 100.852C3412.32 91.9798 3412.02 91.9419 3421.15 91.9419C3442.64 91.9419 3464.09 92.0177 3485.59 91.904C3489.73 91.904 3492.7 92.2452 3492.13 97.5913C3491.63 102.141 3493.76 107.867 3485.81 108.056C3481.17 108.17 3476.46 108.511 3472.01 109.573C3468.96 110.293 3465.58 111.924 3463.6 114.199C3448.04 132.246 3432.79 150.56 3417.42 168.76C3408.44 179.414 3399.69 190.22 3390.41 200.609C3386.91 204.514 3387.37 207.282 3390.07 211.112C3408.86 237.804 3427.57 264.535 3446.29 291.304C3454.36 302.868 3462.27 314.584 3470.56 325.997C3471.93 327.855 3474.86 329.485 3477.18 329.637C3490.91 330.585 3491.86 331.305 3494.18 346.509H3438.19C3439.02 329.295 3425.41 319.627 3417.27 307.342C3401.94 284.176 3385.08 262.033 3369.11 239.283C3366.52 235.605 3363.93 233.596 3359.33 233.861C3353.4 234.164 3347.42 234.051 3341.49 233.899C3338.1 233.823 3336.43 234.733 3336.47 238.525C3336.58 266.09 3336.47 293.617 3336.58 321.181C3336.58 325.997 3341.3 329.485 3347.12 329.864C3353.44 330.281 3359.71 330.926 3365.99 331.457" fill="#F9F5EA"></path>
<path d="M3366.06 331.267C3366.6 332.177 3366.79 332.329 3366.79 332.518C3367.98 342.149 3363.79 346.964 3354.23 346.964C3330.42 346.964 3306.61 346.964 3282.79 346.964C3274.46 346.964 3274.43 346.964 3274.46 338.699C3274.46 336.424 3274.65 334.149 3274.77 331.533C3280.13 330.888 3285.12 330.016 3290.1 329.75C3298.73 329.295 3302.5 325.58 3302.5 316.859C3302.5 252.857 3302.39 188.855 3302.61 124.853C3302.61 113.44 3302.58 111.165 3288.88 108.246C3287.44 107.942 3285.91 107.942 3284.43 107.98C3273.09 108.397 3274.08 105.781 3274.77 94.8614C3274.84 93.7618 3278.46 92.0177 3280.4 92.0177C3302.73 91.8281 3325.06 91.866 3347.39 91.866C3352.29 91.866 3357.16 92.0556 3362.07 91.866C3366.03 91.6765 3367.09 93.3448 3367.17 97.0984C3367.36 106.994 3366.67 107.715 3356.67 108.056C3352.48 108.17 3348.15 108.435 3344.12 109.535C3339.66 110.748 3336.39 113.364 3336.43 118.976C3336.58 150.143 3336.55 181.272 3336.43 212.439C3336.43 216.571 3337.95 217.33 3341.87 218.05C3352.41 219.984 3355.87 211.642 3360.74 205.879C3377.7 185.708 3394.25 165.233 3410.95 144.872C3418.45 135.735 3425.98 126.635 3433.32 117.421C3436.59 113.326 3435.26 110.217 3429.86 109.269C3426.36 108.663 3422.74 108.132 3419.21 108.056C3414.26 107.98 3411.98 106.16 3412.09 100.852C3412.32 91.9798 3412.02 91.9419 3421.15 91.9419C3442.64 91.9419 3464.09 92.0177 3485.59 91.904C3489.73 91.904 3492.7 92.2452 3492.13 97.5913C3491.63 102.141 3493.76 107.867 3485.81 108.056C3481.17 108.17 3476.46 108.511 3472.01 109.573C3468.96 110.293 3465.58 111.924 3463.6 114.199C3448.04 132.246 3432.79 150.56 3417.42 168.76C3408.44 179.414 3399.69 190.22 3390.41 200.609C3386.91 204.514 3387.37 207.282 3390.07 211.112C3408.86 237.804 3427.57 264.535 3446.29 291.304C3454.36 302.868 3462.27 314.584 3470.56 325.997C3471.93 327.855 3474.86 329.485 3477.18 329.637C3490.91 330.585 3491.86 331.305 3494.18 346.509H3438.19C3439.02 329.295 3425.41 319.627 3417.27 307.342C3401.94 284.176 3385.08 262.033 3369.11 239.283C3366.52 235.605 3363.93 233.596 3359.33 233.861C3353.4 234.164 3347.42 234.051 3341.49 233.899C3338.1 233.823 3336.43 234.733 3336.47 238.525C3336.58 266.09 3336.47 293.617 3336.58 321.181C3336.58 325.997 3341.3 329.485 3347.12 329.864C3353.44 330.281 3359.71 330.926 3365.99 331.457" fill="#252525"></path>
<path d="M2425.43 331.501C2431.59 330.819 2436.61 330.022 2441.67 329.757C2449.35 329.34 2453.5 325.283 2453.5 317.548C2453.5 253.129 2453.5 188.672 2453.5 124.253C2453.5 112.233 2452.7 111.21 2441.1 108.669C2439.24 108.252 2437.33 107.873 2435.47 107.949C2424.02 108.328 2425.2 105.674 2425.66 94.8678C2425.69 93.8441 2427.56 92.4791 2428.85 92.0241C2430.41 91.5312 2432.2 91.8345 2433.91 91.8345C2488.99 91.8345 2544.04 91.8345 2599.12 91.8345C2604.65 91.8345 2607.42 94.5897 2607.45 100.1C2607.45 113.864 2607.34 127.665 2607.53 141.429C2607.6 145.713 2606.38 147.457 2601.82 147.381C2582.23 147.002 2587.36 149.808 2583.67 131.608C2582.99 128.31 2582.8 124.935 2582.15 121.636C2579.87 109.845 2576.79 108.935 2566.48 109.048C2542.25 109.352 2518.02 109.276 2493.75 109.048C2488.57 109.01 2487.32 110.679 2487.36 115.57C2487.55 143.324 2487.55 171.117 2487.36 198.871C2487.36 203.459 2488.46 205.203 2493.37 205.127C2510.79 204.862 2528.25 205.014 2545.67 205.014C2551.45 205.014 2554.73 202.17 2555.56 196.558C2556.48 190.34 2557.43 184.084 2558.07 177.828C2558.49 173.771 2560.05 171.799 2564.46 171.875C2579.38 172.178 2576.67 170.472 2576.79 183.819C2576.94 205.848 2576.67 227.915 2576.94 249.944C2577.02 255.252 2575.34 257.338 2570.09 256.655C2568.19 256.428 2566.25 256.465 2564.35 256.655C2559.86 257.034 2558.53 254.57 2558.11 250.626C2557.46 244.37 2556.55 238.114 2555.56 231.896C2554.5 225.147 2551.23 222.379 2544.57 222.379C2527.57 222.379 2510.56 222.531 2493.56 222.265C2488.8 222.189 2487.36 223.668 2487.4 228.408C2487.59 260.219 2487.55 291.993 2487.4 323.766C2487.4 328.164 2488.69 329.643 2493.18 329.643C2523.8 329.491 2554.42 329.491 2585.04 329.643C2591.17 329.643 2593.98 326.307 2595.05 321.112C2596.99 311.671 2598.78 302.154 2600.15 292.637C2600.87 287.519 2602.24 284.789 2608.29 284.94C2621.45 285.282 2621.45 284.94 2621.45 298.097C2621.45 312.316 2621.3 326.496 2621.52 340.715C2621.6 345.151 2620.61 347.085 2615.59 347.085C2554.16 346.933 2492.68 346.933 2431.25 347.085C2426.91 347.085 2424.93 345.871 2425.35 341.359C2425.62 338.25 2425.39 335.103 2425.39 331.501" fill="#F9F5EA"></path>
<path d="M2425.43 331.501C2431.59 330.819 2436.61 330.022 2441.67 329.757C2449.35 329.34 2453.5 325.283 2453.5 317.548C2453.5 253.129 2453.5 188.672 2453.5 124.253C2453.5 112.233 2452.7 111.21 2441.1 108.669C2439.24 108.252 2437.33 107.873 2435.47 107.949C2424.02 108.328 2425.2 105.674 2425.66 94.8678C2425.69 93.8441 2427.56 92.4791 2428.85 92.0241C2430.41 91.5312 2432.2 91.8345 2433.91 91.8345C2488.99 91.8345 2544.04 91.8345 2599.12 91.8345C2604.65 91.8345 2607.42 94.5897 2607.45 100.1C2607.45 113.864 2607.34 127.665 2607.53 141.429C2607.6 145.713 2606.38 147.457 2601.82 147.381C2582.23 147.002 2587.36 149.808 2583.67 131.608C2582.99 128.31 2582.8 124.935 2582.15 121.636C2579.87 109.845 2576.79 108.935 2566.48 109.048C2542.25 109.352 2518.02 109.276 2493.75 109.048C2488.57 109.01 2487.32 110.679 2487.36 115.57C2487.55 143.324 2487.55 171.117 2487.36 198.871C2487.36 203.459 2488.46 205.203 2493.37 205.127C2510.79 204.862 2528.25 205.014 2545.67 205.014C2551.45 205.014 2554.73 202.17 2555.56 196.558C2556.48 190.34 2557.43 184.084 2558.07 177.828C2558.49 173.771 2560.05 171.799 2564.46 171.875C2579.38 172.178 2576.67 170.472 2576.79 183.819C2576.94 205.848 2576.67 227.915 2576.94 249.944C2577.02 255.252 2575.34 257.338 2570.09 256.655C2568.19 256.428 2566.25 256.465 2564.35 256.655C2559.86 257.034 2558.53 254.57 2558.11 250.626C2557.46 244.37 2556.55 238.114 2555.56 231.896C2554.5 225.147 2551.23 222.379 2544.57 222.379C2527.57 222.379 2510.56 222.531 2493.56 222.265C2488.8 222.189 2487.36 223.668 2487.4 228.408C2487.59 260.219 2487.55 291.993 2487.4 323.766C2487.4 328.164 2488.69 329.643 2493.18 329.643C2523.8 329.491 2554.42 329.491 2585.04 329.643C2591.17 329.643 2593.98 326.307 2595.05 321.112C2596.99 311.671 2598.78 302.154 2600.15 292.637C2600.87 287.519 2602.24 284.789 2608.29 284.94C2621.45 285.282 2621.45 284.94 2621.45 298.097C2621.45 312.316 2621.3 326.496 2621.52 340.715C2621.6 345.151 2620.61 347.085 2615.59 347.085C2554.16 346.933 2492.68 346.933 2431.25 347.085C2426.91 347.085 2424.93 345.871 2425.35 341.359C2425.62 338.25 2425.39 335.103 2425.39 331.501" fill="#252525"></path>
<path d="M2112.6 331.462C2119.45 330.818 2125.3 330.06 2131.16 329.718C2137.4 329.339 2139.61 326.533 2137.36 320.126C2133.33 308.637 2128.96 297.262 2124.66 285.887C2121.12 276.446 2117.16 267.157 2114.04 257.564C2112.48 252.825 2110.09 251.46 2105.33 251.498C2079.39 251.687 2053.48 251.687 2027.54 251.498C2023.17 251.498 2020.92 252.976 2019.48 256.806C2011.72 277.66 2003.8 298.476 1996.04 319.329C1993.69 325.661 1996.42 329.377 2003.16 329.718C2008.45 329.984 2013.73 330.325 2018.91 331.159C2020.35 331.387 2021.72 333.358 2022.71 334.799C2023.2 335.519 2022.82 336.846 2022.82 337.908C2022.87 343.949 2019.95 346.97 2014.04 346.97C1994.07 346.97 1974.06 346.856 1954.09 347.046C1949.37 347.084 1947.81 345.681 1947.89 340.903C1948.04 331.538 1947.73 331.045 1957.4 329.567C1966.45 328.164 1971.66 324.524 1974.97 315.045C1986.27 282.513 1998.86 250.474 2010.96 218.208C2026.74 176.121 2042.49 134.072 2058.47 92.0612C2059.11 90.3171 2061.82 88.3455 2063.68 88.2317C2070.22 87.8147 2078.1 85.9947 2083.04 88.8763C2087.42 91.3788 2088.98 99.3032 2091.18 105.028C2106.32 144.196 2121.31 183.439 2136.37 222.644C2149.27 256.161 2162.16 289.679 2175.21 323.121C2175.86 324.827 2178.07 326.42 2179.89 327.026C2183.66 328.277 2187.65 328.884 2191.57 329.604C2197.81 330.742 2202.03 340.183 2198.3 345.453C2197.58 346.477 2195.34 346.856 2193.81 346.894C2168.52 346.97 2143.22 346.894 2117.92 347.046C2113.7 347.046 2112.18 345.605 2112.52 341.51C2112.75 338.401 2112.56 335.216 2112.56 331.462M2067.1 133.579L2064.44 133.428C2052.69 166.376 2040.93 199.363 2029.02 232.767H2104.08C2091.52 199.022 2079.31 166.301 2067.1 133.541" fill="#F9F5EA"></path>
<path d="M2112.6 331.462C2119.45 330.818 2125.3 330.06 2131.16 329.718C2137.4 329.339 2139.61 326.533 2137.36 320.126C2133.33 308.637 2128.96 297.262 2124.66 285.887C2121.12 276.446 2117.16 267.157 2114.04 257.564C2112.48 252.825 2110.09 251.46 2105.33 251.498C2079.39 251.687 2053.48 251.687 2027.54 251.498C2023.17 251.498 2020.92 252.976 2019.48 256.806C2011.72 277.66 2003.8 298.476 1996.04 319.329C1993.69 325.661 1996.42 329.377 2003.16 329.718C2008.45 329.984 2013.73 330.325 2018.91 331.159C2020.35 331.387 2021.72 333.358 2022.71 334.799C2023.2 335.519 2022.82 336.846 2022.82 337.908C2022.87 343.949 2019.95 346.97 2014.04 346.97C1994.07 346.97 1974.06 346.856 1954.09 347.046C1949.37 347.084 1947.81 345.681 1947.89 340.903C1948.04 331.538 1947.73 331.045 1957.4 329.567C1966.45 328.164 1971.66 324.524 1974.97 315.045C1986.27 282.513 1998.86 250.474 2010.96 218.208C2026.74 176.121 2042.49 134.072 2058.47 92.0612C2059.11 90.3171 2061.82 88.3455 2063.68 88.2317C2070.22 87.8147 2078.1 85.9947 2083.04 88.8763C2087.42 91.3788 2088.98 99.3032 2091.18 105.028C2106.32 144.196 2121.31 183.439 2136.37 222.644C2149.27 256.161 2162.16 289.679 2175.21 323.121C2175.86 324.827 2178.07 326.42 2179.89 327.026C2183.66 328.277 2187.65 328.884 2191.57 329.604C2197.81 330.742 2202.03 340.183 2198.3 345.453C2197.58 346.477 2195.34 346.856 2193.81 346.894C2168.52 346.97 2143.22 346.894 2117.92 347.046C2113.7 347.046 2112.18 345.605 2112.52 341.51C2112.75 338.401 2112.56 335.216 2112.56 331.462M2067.1 133.579L2064.44 133.428C2052.69 166.376 2040.93 199.363 2029.02 232.767H2104.08C2091.52 199.022 2079.31 166.301 2067.1 133.541" fill="#252525"></path>
<path d="M3214.47 278.301C3215.23 277.96 3215.42 277.846 3215.61 277.808C3228.57 276.569 3235.05 282.32 3235.05 295.06C3235.05 307.344 3234.86 319.629 3235.17 331.914C3235.28 336.805 3233.53 339.156 3228.89 340.445C3209.76 345.791 3190.47 349.621 3170.58 351.061C3151.75 352.426 3133.49 350.834 3115.57 345.564C3092.9 338.928 3074.14 326.151 3058.97 307.951C3044.09 290.093 3033.63 270.111 3029.94 247.172C3023.09 204.365 3027.96 164.136 3057.71 129.67C3077.49 106.807 3102.52 94.1432 3132.08 89.0625C3165.44 83.3372 3197.55 89.0245 3229.46 98.1244C3233.49 99.2618 3235.21 101.044 3235.13 105.556C3234.82 121.215 3234.86 136.912 3235.13 152.61C3235.21 157.349 3233.68 158.866 3228.97 158.752C3210.17 158.297 3214.97 161.254 3211.2 143.131C3209.64 135.623 3208.77 127.661 3205.53 120.874C3201.88 113.215 3192.71 112.305 3185.37 110.637C3159.66 104.722 3134.32 105.783 3111.23 119.964C3091.34 132.211 3078.56 150.372 3072.36 172.743C3063.61 204.365 3063.87 236.1 3074.26 267.267C3084.38 297.6 3104.42 318.643 3136 327.212C3156.2 332.71 3176.66 332.672 3196.63 326.53C3200.55 325.317 3204.58 319.895 3205.84 315.648C3209.45 303.401 3211.66 290.775 3214.44 278.187" fill="#F9F5EA"></path>
<path d="M3214.47 278.301C3215.23 277.96 3215.42 277.846 3215.61 277.808C3228.57 276.569 3235.05 282.32 3235.05 295.06C3235.05 307.344 3234.86 319.629 3235.17 331.914C3235.28 336.805 3233.53 339.156 3228.89 340.445C3209.76 345.791 3190.47 349.621 3170.58 351.061C3151.75 352.426 3133.49 350.834 3115.57 345.564C3092.9 338.928 3074.14 326.151 3058.97 307.951C3044.09 290.093 3033.63 270.111 3029.94 247.172C3023.09 204.365 3027.96 164.136 3057.71 129.67C3077.49 106.807 3102.52 94.1432 3132.08 89.0625C3165.44 83.3372 3197.55 89.0245 3229.46 98.1244C3233.49 99.2618 3235.21 101.044 3235.13 105.556C3234.82 121.215 3234.86 136.912 3235.13 152.61C3235.21 157.349 3233.68 158.866 3228.97 158.752C3210.17 158.297 3214.97 161.254 3211.2 143.131C3209.64 135.623 3208.77 127.661 3205.53 120.874C3201.88 113.215 3192.71 112.305 3185.37 110.637C3159.66 104.722 3134.32 105.783 3111.23 119.964C3091.34 132.211 3078.56 150.372 3072.36 172.743C3063.61 204.365 3063.87 236.1 3074.26 267.267C3084.38 297.6 3104.42 318.643 3136 327.212C3156.2 332.71 3176.66 332.672 3196.63 326.53C3200.55 325.317 3204.58 319.895 3205.84 315.648C3209.45 303.401 3211.66 290.775 3214.44 278.187" fill="#252525"></path>
<path d="M2284.65 304.464C2289.29 292.028 2293.44 281.146 2297.39 270.188C2315.19 220.784 2332.92 171.379 2350.76 122.013C2353.96 113.178 2352.74 110.714 2343.34 109.008C2339.84 108.363 2336.23 108.211 2332.69 107.87C2326.07 107.226 2325.54 105.861 2325.54 96.8366C2325.54 90.8838 2329.31 91.8317 2332.81 91.8317C2353.65 91.8317 2374.46 91.8317 2395.31 91.8317C2398.39 91.8317 2402.46 91.1113 2401.66 96.2299C2400.97 100.477 2405.16 107.188 2396.41 107.984C2395.15 108.098 2393.94 109.008 2392.76 108.932C2380.47 108.022 2376.4 115.529 2372.71 125.766C2354.11 177.56 2334.79 229.087 2315.69 280.691C2307.89 301.772 2300.17 322.891 2292.1 343.859C2291.38 345.793 2288.45 347.992 2286.44 348.143C2263.92 349.812 2264.3 349.584 2256.42 328.541C2239.53 283.269 2222.19 238.187 2205.11 193.029C2195.67 168.081 2186.12 143.17 2177.22 118.032C2174.79 111.169 2169.81 110.373 2164.29 109.311C2161.59 108.78 2158.89 108.136 2156.19 108.06C2151.01 107.87 2149.3 105.481 2149.45 100.401C2149.72 91.8696 2149.45 91.8317 2158.24 91.8317C2182.47 91.8317 2206.7 91.9075 2230.94 91.7559C2235.84 91.7559 2238.92 92.0971 2238.58 98.3911C2238.13 107.074 2238.05 107.567 2230.56 107.946C2226.56 108.136 2222.57 108.553 2218.65 109.311C2214.12 110.145 2212.33 113.937 2213.97 118.259C2232.38 167.664 2250.79 217.03 2269.2 266.434C2273.01 276.672 2276.85 286.909 2280.77 297.071C2281.57 299.156 2282.82 301.014 2284.65 304.464Z" fill="#F9F5EA"></path>
<path d="M2284.65 304.464C2289.29 292.028 2293.44 281.146 2297.39 270.188C2315.19 220.784 2332.92 171.379 2350.76 122.013C2353.96 113.178 2352.74 110.714 2343.34 109.008C2339.84 108.363 2336.23 108.211 2332.69 107.87C2326.07 107.226 2325.54 105.861 2325.54 96.8366C2325.54 90.8838 2329.31 91.8317 2332.81 91.8317C2353.65 91.8317 2374.46 91.8317 2395.31 91.8317C2398.39 91.8317 2402.46 91.1113 2401.66 96.2299C2400.97 100.477 2405.16 107.188 2396.41 107.984C2395.15 108.098 2393.94 109.008 2392.76 108.932C2380.47 108.022 2376.4 115.529 2372.71 125.766C2354.11 177.56 2334.79 229.087 2315.69 280.691C2307.89 301.772 2300.17 322.891 2292.1 343.859C2291.38 345.793 2288.45 347.992 2286.44 348.143C2263.92 349.812 2264.3 349.584 2256.42 328.541C2239.53 283.269 2222.19 238.187 2205.11 193.029C2195.67 168.081 2186.12 143.17 2177.22 118.032C2174.79 111.169 2169.81 110.373 2164.29 109.311C2161.59 108.78 2158.89 108.136 2156.19 108.06C2151.01 107.87 2149.3 105.481 2149.45 100.401C2149.72 91.8696 2149.45 91.8317 2158.24 91.8317C2182.47 91.8317 2206.7 91.9075 2230.94 91.7559C2235.84 91.7559 2238.92 92.0971 2238.58 98.3911C2238.13 107.074 2238.05 107.567 2230.56 107.946C2226.56 108.136 2222.57 108.553 2218.65 109.311C2214.12 110.145 2212.33 113.937 2213.97 118.259C2232.38 167.664 2250.79 217.03 2269.2 266.434C2273.01 276.672 2276.85 286.909 2280.77 297.071C2281.57 299.156 2282.82 301.014 2284.65 304.464Z" fill="#252525"></path>
<path d="M2953 91.8317C2966.81 91.8317 2980.66 91.8317 2994.47 91.8317C2997.7 91.8317 3001.24 91.3767 3000.74 96.4195C3000.33 100.818 3002.95 106.771 2995.38 107.718C2989.94 108.401 2984.43 108.628 2978.99 109.197C2973.32 109.766 2970.12 112.875 2970.12 118.676C2970.12 185.863 2970.12 253.05 2970.12 320.237C2970.12 326.379 2974 328.882 2979.25 329.602C2984.88 330.361 2990.63 330.74 2996.29 330.929C2999.53 331.043 3001.01 332.181 3000.74 335.441C3000.67 336.503 3000.74 337.565 3000.74 338.626C3000.74 344.213 2998.02 347.018 2992.57 347.044C2965.37 347.044 2938.13 346.93 2910.93 347.157C2905.64 347.195 2903.63 345.641 2904.16 340.333C2904.62 335.821 2902.53 331.005 2910.82 330.588C2917.59 330.209 2925.5 332.408 2931.25 326.531C2932.96 324.787 2934.75 322.171 2934.75 319.934C2934.94 252.974 2934.86 186.015 2934.94 119.017C2934.94 112.875 2931.36 110.221 2926.11 109.349C2921.13 108.515 2916.03 108.022 2910.97 108.022C2903.25 108.022 2904.5 102.827 2904.12 97.974C2903.7 92.5142 2906.33 91.7179 2910.93 91.7938C2924.97 91.9833 2939.01 91.8696 2953.04 91.8696" fill="#F9F5EA"></path>
<path d="M2953 91.8317C2966.81 91.8317 2980.66 91.8317 2994.47 91.8317C2997.7 91.8317 3001.24 91.3767 3000.74 96.4195C3000.33 100.818 3002.95 106.771 2995.38 107.718C2989.94 108.401 2984.43 108.628 2978.99 109.197C2973.32 109.766 2970.12 112.875 2970.12 118.676C2970.12 185.863 2970.12 253.05 2970.12 320.237C2970.12 326.379 2974 328.882 2979.25 329.602C2984.88 330.361 2990.63 330.74 2996.29 330.929C2999.53 331.043 3001.01 332.181 3000.74 335.441C3000.67 336.503 3000.74 337.565 3000.74 338.626C3000.74 344.213 2998.02 347.018 2992.57 347.044C2965.37 347.044 2938.13 346.93 2910.93 347.157C2905.64 347.195 2903.63 345.641 2904.16 340.333C2904.62 335.821 2902.53 331.005 2910.82 330.588C2917.59 330.209 2925.5 332.408 2931.25 326.531C2932.96 324.787 2934.75 322.171 2934.75 319.934C2934.94 252.974 2934.86 186.015 2934.94 119.017C2934.94 112.875 2931.36 110.221 2926.11 109.349C2921.13 108.515 2916.03 108.022 2910.97 108.022C2903.25 108.022 2904.5 102.827 2904.12 97.974C2903.7 92.5142 2906.33 91.7179 2910.93 91.7938C2924.97 91.9833 2939.01 91.8696 2953.04 91.8696" fill="#252525"></path>
<path d="M1139.11 266.548L1118.19 223.627L1116.4 223.892L1115.26 224.082L1107.35 225.257C1120.78 247.931 1133.1 269.202 1133.37 269.619L1139.11 266.586V266.548Z" fill="#252525"></path>
<path d="M1118.14 223.588L1116.39 223.891L1118.18 223.626L1118.14 223.588Z" fill="#252525"></path>
<path d="M1155.52 229.693L1146.24 223.475C1140.99 223.058 1136.5 222.754 1133.23 222.565L1150.88 234.394C1151.22 235.646 1151.75 237.845 1152.44 240.726L1126.34 225.295L1127.22 229.238L1154.38 249.447C1154.8 251.495 1155.25 253.656 1155.63 255.893L1133.57 242.85L1134.44 246.793L1156.89 263.211C1157.23 265.334 1157.54 267.495 1157.8 269.618L1139.58 257.978L1140.46 261.921L1158.52 277.088C1158.71 279.704 1158.83 282.282 1158.83 284.709L1144.3 276.14L1145.17 280.083L1158.22 292.747C1157.61 296.273 1156.36 299.269 1154.49 301.581L1143.69 286.377L1142.47 288.235L1149.01 305.79C1144.83 307.686 1139.62 307.951 1134.14 306.776L1137.18 287.932L1135.4 283.116L1129.61 305.449C1127.48 304.653 1125.32 303.667 1123.22 302.453L1130.07 276.026L1128.93 273.258L1118.77 299.382C1116.91 297.828 1115.04 295.932 1113.18 293.809L1122.46 268.822L1121.32 266.016L1108.96 288.614C1107.7 286.984 1106.49 285.278 1105.31 283.496L1116.83 257.03L1115.69 254.224L1101.27 277.315C1100.44 275.988 1099.64 274.661 1098.88 273.334L1109.57 245.466L1108.43 242.698L1095.19 266.888C1094.66 265.94 1094.16 265.03 1093.67 264.121L1103.25 233.56L1102.11 230.755L1090.17 257.296L1090.24 257.523C1089.14 255.324 1088.3 253.618 1087.81 252.556L1096.06 226.811L1089.48 227.797L1090.97 221.389C1091.16 220.555 1091.42 219.493 1091.73 218.318L1079.06 232.612L1077.96 230.034L1089.33 208.195L1088.19 205.389L1074.84 222.792L1073.24 219.038L1083.66 196.82L1082.52 194.014L1070.2 211.91L1069.21 209.597L1082.48 184.118C1086.17 189.995 1090.62 197.351 1095.42 205.313C1097.09 200.043 1099.18 194.431 1101.54 189.692L1095.91 178.165L1109.8 178.961C1109.8 178.961 1110.06 178.772 1110.21 178.696C1112.8 177.331 1117.82 175.89 1123.83 174.449L1121.44 173.122L1098.88 171.833L1109.49 163.188L1107.21 157.425L1095.38 158.221C1097.85 155.757 1100.06 152.875 1100.63 150.221L1094.27 148.856C1093.86 150.904 1089.94 154.733 1085.91 157.804L1079.4 144.496L1077.69 142.903L1056.96 134.41L1052.93 139.074C1052.93 139.074 1060.15 151.169 1068.14 163.037C1062.74 163.947 1053.5 165.16 1044.9 164.402L1044.33 170.847C1051.75 171.492 1059.51 170.847 1065.25 170.013L1057.03 179.72L1060.27 184.99L1076.55 181.16L1062.59 207.929L1062.47 210.697L1074.91 239.854L1080.35 240.726L1087.05 233.181L1081.07 251.722L1081.23 254.073C1081.99 255.779 1100.7 295.97 1118.24 307.041C1124.74 311.174 1131.78 313.487 1138.36 313.866C1143.23 314.132 1147.87 313.335 1151.91 311.44C1157 309.013 1163.36 303.667 1164.72 291.989C1167.2 270.225 1157.04 232.954 1156.58 231.399L1155.25 229.579L1155.52 229.693ZM1097.7 164.629L1091.76 169.444L1089.67 165.16L1097.7 164.629ZM1068.64 176.497L1073.58 170.658C1074.08 171.34 1074.57 172.023 1075.06 172.705C1075.44 173.236 1075.94 173.919 1076.43 174.639L1068.64 176.459V176.497ZM1063.92 144.268L1074.27 148.515L1097.43 196.024C1089.9 183.549 1083.43 173.16 1080.31 168.914C1074.49 160.951 1068.18 151.131 1063.92 144.268Z" fill="#252525"></path>
<path d="M1140.67 219.76L1131.39 221.352L1131.66 221.541L1140.9 219.873L1140.67 219.76Z" fill="#252525"></path>
<path d="M1487.65 156.667L1467.49 222.186L1475.48 225.181L1494.42 161.027C1494.42 161.027 1533.26 145.179 1561.22 110.827C1598.46 65.0623 1603.82 19.9044 1603.82 19.9044L1598.23 12.0938C1598.23 12.0938 1595.68 53.6875 1557.03 103.319C1531.28 136.382 1487.69 156.667 1487.69 156.667" fill="#252525"></path>
<path d="M1452.42 137.788L1403.5 134.413C1399.93 136.006 1396.39 137.408 1392.96 138.735L1404.99 139.115L1403.01 145.788L1452.42 150.679L1447.25 165.201L1453.45 166.035L1441.28 181.998L1432.26 207.363L1446.91 213.619L1467.9 148.48C1480.61 141.845 1517.28 121.218 1537.33 94.2222C1564.14 58.0883 1575.82 10.7693 1578.22 0.0390625H1562.66C1558.1 19.6037 1548.24 48.9127 1526.83 81.2929C1507.35 110.791 1452.35 137.863 1452.35 137.863" fill="#C23D3D"></path>
<path d="M1327.52 385.57C1327.52 385.57 1323.34 415.448 1311.01 438.425L1310.48 439.449L1329.31 439.297L1329.5 439.032H1329.46C1342.62 413.021 1345.29 388.111 1345.29 388.111L1360.54 362.29L1350.88 350.195L1337.26 372.451L1306.37 332.223C1305.08 337.417 1303.48 342.953 1301.58 348.716L1327.6 385.57H1327.52Z" fill="#C23D3D"></path>
<path d="M1388.44 358.114C1367.78 338.132 1349.71 309.088 1340.74 293.543L1338.61 302.529C1347.2 317.051 1361.77 339.762 1378.55 357.659C1380.26 359.479 1381.97 361.223 1383.72 362.929C1387.75 366.834 1391.9 370.512 1396.16 374.038C1396.35 374.19 1396.5 374.342 1396.69 374.456C1398.67 376.086 1400.65 377.64 1402.66 379.157C1403.01 379.423 1403.39 379.688 1403.73 379.953C1405.59 381.356 1407.5 382.721 1409.4 384.048C1410.12 384.541 1410.81 385.034 1411.53 385.527C1413.09 386.589 1414.65 387.65 1416.21 388.674C1464.06 419.613 1519.56 430.04 1554.29 433.529C1555.28 432.619 1585.71 435.803 1586.7 434.893C1584.61 434.704 1582.37 434.476 1579.97 434.211C1580.08 434.211 1580.2 434.211 1580.31 434.211C1581.11 433.453 1615 434.363 1615.8 433.566C1536.57 428.751 1441.54 409.566 1388.44 358.076" fill="#252525"></path>
<path d="M1218.42 439.066C1236.87 430.345 1254.06 418.705 1264.56 402.97C1297.16 354.096 1302.22 311.555 1302.56 291.838L1302.29 289.487C1296.82 286.454 1290.73 283.042 1284.34 279.516L1284.15 291.535C1283.84 310.265 1278.9 348.333 1249.23 392.808C1241.85 403.842 1228.84 413.852 1210.5 422.497L1172.43 440.507L1216.4 440.165L1218.38 439.066H1218.42Z" fill="#252525"></path>
<path d="M1324.18 120.876C1332.32 120.421 1337.41 120.118 1337.64 120.08L1361.26 118.715L1353.16 130.924C1377.24 122.241 1405.85 106.582 1433.12 78.3343C1456.33 54.2956 1468.77 25.5932 1475.38 0H1456.33C1448.87 26.162 1436.62 48.229 1419.85 65.6324C1385.99 100.743 1350.04 114.658 1324.52 120.118H1324.71L1324.18 120.914V120.876Z" fill="#252525"></path>
</svg>